<svg width="174" height="52" viewBox="0 0 174 52" fill="none" xmlns="http://www.w3.org/2000/svg">
<path fill-rule="evenodd" clip-rule="evenodd" d="M0 1V12.25H11.25V34.75H0V46H11.25L22.5 34.75H33.75V46H45V12.25L33.75 1H0ZM22.5 12.2499V23.4999H33.75V12.2499H22.5Z" fill="#204B76"/>
<path d="M71.3914 27.5024L78.5247 46H75.8804L74.2421 41.7432H65.8963L64.2581 46H61.6137L68.747 27.5024H71.3914ZM66.9024 39.0989H73.2231L70.0757 30.9465L66.9024 39.0989ZM81.44 34.8034C81.44 34.4508 81.5045 34.1197 81.6335 33.8101C81.7711 33.5005 81.9516 33.234 82.1752 33.0104C82.4074 32.7782 82.6783 32.5976 82.9879 32.4686C83.2975 32.331 83.6243 32.2622 83.9682 32.2622H91.05C91.4026 32.2622 91.7336 32.331 92.0432 32.4686C92.3528 32.5976 92.6194 32.7782 92.843 33.0104C93.0752 33.234 93.2558 33.5005 93.3848 33.8101C93.5223 34.1197 93.5911 34.4508 93.5911 34.8034V51.5467H91.05V43.5749C91.0414 43.9103 90.964 44.2242 90.8178 44.5166C90.6802 44.809 90.4953 45.0669 90.2631 45.2905C90.0395 45.5055 89.7772 45.6775 89.4763 45.8065C89.1753 45.9355 88.8571 46 88.5217 46H83.9682C83.6243 46 83.2975 45.9355 82.9879 45.8065C82.6783 45.6689 82.4074 45.4883 82.1752 45.2647C81.9516 45.0326 81.7711 44.7617 81.6335 44.4521C81.5045 44.1425 81.44 43.8114 81.44 43.4588V34.8034ZM91.05 43.4588V34.8034H83.9682V43.4588H91.05ZM97.8221 32.2622H100.35V43.4588H107.432V32.2622H109.973V46H107.432V43.6781C107.406 43.9963 107.32 44.2973 107.174 44.5811C107.028 44.8649 106.839 45.1142 106.607 45.3292C106.383 45.5356 106.125 45.699 105.833 45.8194C105.54 45.9398 105.231 46 104.904 46H100.35C100.006 46 99.6796 45.9355 99.37 45.8065C99.0605 45.6689 98.7896 45.4883 98.5574 45.2647C98.3338 45.0326 98.1532 44.7617 98.0156 44.4521C97.8866 44.1425 97.8221 43.8114 97.8221 43.4588V32.2622ZM116.874 32.2622V46H114.333V32.2622H116.874ZM114.204 26.9735H117.003V29.6179H114.204V26.9735ZM133.398 46H130.857V34.8034H123.776V46H121.247V32.2622H123.776V34.6873C123.793 34.3519 123.87 34.038 124.008 33.7456C124.145 33.4447 124.326 33.1867 124.55 32.9717C124.782 32.7481 125.048 32.5761 125.349 32.4557C125.65 32.3267 125.973 32.2622 126.317 32.2622H130.857C131.21 32.2622 131.541 32.331 131.851 32.4686C132.16 32.5976 132.427 32.7782 132.65 33.0104C132.882 33.234 133.063 33.5005 133.192 33.8101C133.33 34.1197 133.398 34.4508 133.398 34.8034V46ZM149.51 43.4588C149.51 43.8114 149.441 44.1425 149.303 44.4521C149.174 44.7617 148.994 45.0326 148.762 45.2647C148.538 45.4883 148.271 45.6689 147.962 45.8065C147.661 45.9355 147.334 46 146.981 46H140.158C139.814 46 139.487 45.9355 139.177 45.8065C138.868 45.6689 138.597 45.4883 138.365 45.2647C138.141 45.0326 137.961 44.7617 137.823 44.4521C137.694 44.1425 137.629 43.8114 137.629 43.4588V34.8034C137.629 34.4508 137.694 34.1197 137.823 33.8101C137.961 33.5005 138.141 33.234 138.365 33.0104C138.597 32.7782 138.868 32.5976 139.177 32.4686C139.487 32.331 139.814 32.2622 140.158 32.2622H146.981C147.334 32.2622 147.661 32.331 147.962 32.4686C148.271 32.5976 148.538 32.7782 148.762 33.0104C148.994 33.234 149.174 33.5005 149.303 33.8101C149.441 34.1197 149.51 34.4508 149.51 34.8034V43.4588ZM140.158 34.8034V43.4588H146.981V34.8034H140.158Z" fill="#232323"/>
<path d="M61.8446 13.646H64.489V16.8193H71.9706V0.965984H74.6149V16.8193C74.6149 17.1804 74.5418 17.5244 74.3957 17.8512C74.2581 18.1694 74.0689 18.4489 73.8281 18.6897C73.5959 18.9305 73.3164 19.1196 72.9896 19.2572C72.6714 19.3948 72.3318 19.4636 71.9706 19.4636H64.489C64.1278 19.4636 63.7838 19.3948 63.457 19.2572C63.1388 19.1196 62.8594 18.9305 62.6186 18.6897C62.3864 18.4489 62.1972 18.1694 62.051 17.8512C61.9134 17.5244 61.8446 17.1804 61.8446 16.8193V13.646ZM90.9971 16.9225C90.9971 17.275 90.9283 17.6061 90.7907 17.9157C90.6617 18.2253 90.4811 18.4962 90.2489 18.7284C90.0253 18.9519 89.7588 19.1325 89.4492 19.2701C89.1482 19.3991 88.8214 19.4636 88.4688 19.4636H81.6451C81.3011 19.4636 80.9743 19.3991 80.6647 19.2701C80.3551 19.1325 80.0843 18.9519 79.8521 18.7284C79.6285 18.4962 79.4479 18.2253 79.3103 17.9157C79.1813 17.6061 79.1168 17.275 79.1168 16.9225V8.267C79.1168 7.91442 79.1813 7.58334 79.3103 7.27376C79.4479 6.96417 79.6285 6.69759 79.8521 6.474C80.0843 6.24181 80.3551 6.06122 80.6647 5.93223C80.9743 5.79463 81.3011 5.72584 81.6451 5.72584H88.4688C88.8214 5.72584 89.1482 5.79463 89.4492 5.93223C89.7588 6.06122 90.0253 6.24181 90.2489 6.474C90.4811 6.69759 90.6617 6.96417 90.7907 7.27376C90.9283 7.58334 90.9971 7.91442 90.9971 8.267V16.9225ZM81.6451 8.267V16.9225H88.4688V8.267H81.6451ZM107.392 19.4636H104.851V8.267H97.7692V19.4636H95.241V0.437111H97.7692V8.15091C97.7864 7.81553 97.8638 7.50164 98.0014 7.20926C98.139 6.90828 98.3196 6.65029 98.5432 6.4353C98.7754 6.21171 99.042 6.03972 99.343 5.91933C99.6439 5.79033 99.9664 5.72584 100.31 5.72584H104.851C105.204 5.72584 105.535 5.79463 105.844 5.93223C106.154 6.06122 106.42 6.24181 106.644 6.474C106.876 6.69759 107.057 6.96417 107.186 7.27376C107.323 7.58334 107.392 7.91442 107.392 8.267V19.4636ZM123.774 19.4636H121.233V8.267H114.151V19.4636H111.623V5.72584H114.151V8.15091C114.169 7.81553 114.246 7.50164 114.384 7.20926C114.521 6.90828 114.702 6.65029 114.925 6.4353C115.158 6.21171 115.424 6.03972 115.725 5.91933C116.026 5.79033 116.349 5.72584 116.693 5.72584H121.233C121.586 5.72584 121.917 5.79463 122.226 5.93223C122.536 6.06122 122.803 6.24181 123.026 6.474C123.258 6.69759 123.439 6.96417 123.568 7.27376C123.705 7.58334 123.774 7.91442 123.774 8.267V19.4636ZM136.3 16.9225V13.7363H130.276C129.923 13.7363 129.592 13.6718 129.282 13.5428C128.973 13.4052 128.702 13.2246 128.47 13.0011C128.246 12.7689 128.065 12.498 127.928 12.1884C127.799 11.8788 127.734 11.5477 127.734 11.1952V8.267C127.734 7.91442 127.799 7.58334 127.928 7.27376C128.065 6.96417 128.246 6.69759 128.47 6.474C128.702 6.24181 128.973 6.06122 129.282 5.93223C129.592 5.79463 129.923 5.72584 130.276 5.72584H138.312V8.267H130.276V11.1952H136.3C136.652 11.1952 136.979 11.2639 137.28 11.4015C137.589 11.5305 137.86 11.7111 138.093 11.9433C138.325 12.1669 138.505 12.4335 138.634 12.7431C138.772 13.0527 138.841 13.3837 138.841 13.7363V16.9225C138.841 17.275 138.772 17.6061 138.634 17.9157C138.505 18.2253 138.325 18.4962 138.093 18.7284C137.86 18.9519 137.589 19.1325 137.28 19.2701C136.979 19.3991 136.652 19.4636 136.3 19.4636H127.734V16.9225H136.3ZM154.694 16.9225C154.694 17.275 154.625 17.6061 154.488 17.9157C154.359 18.2253 154.178 18.4962 153.946 18.7284C153.722 18.9519 153.456 19.1325 153.146 19.2701C152.845 19.3991 152.518 19.4636 152.166 19.4636H145.342C144.998 19.4636 144.671 19.3991 144.362 19.2701C144.052 19.1325 143.781 18.9519 143.549 18.7284C143.325 18.4962 143.145 18.2253 143.007 17.9157C142.878 17.6061 142.814 17.275 142.814 16.9225V8.267C142.814 7.91442 142.878 7.58334 143.007 7.27376C143.145 6.96417 143.325 6.69759 143.549 6.474C143.781 6.24181 144.052 6.06122 144.362 5.93223C144.671 5.79463 144.998 5.72584 145.342 5.72584H152.166C152.518 5.72584 152.845 5.79463 153.146 5.93223C153.456 6.06122 153.722 6.24181 153.946 6.474C154.178 6.69759 154.359 6.96417 154.488 7.27376C154.625 7.58334 154.694 7.91442 154.694 8.267V16.9225ZM145.342 8.267V16.9225H152.166V8.267H145.342ZM171.089 19.4636H168.548V8.267H161.466V19.4636H158.938V5.72584H161.466V8.15091C161.483 7.81553 161.561 7.50164 161.698 7.20926C161.836 6.90828 162.017 6.65029 162.24 6.4353C162.472 6.21171 162.739 6.03972 163.04 5.91933C163.341 5.79033 163.663 5.72584 164.007 5.72584H168.548C168.9 5.72584 169.232 5.79463 169.541 5.93223C169.851 6.06122 170.117 6.24181 170.341 6.474C170.573 6.69759 170.754 6.96417 170.883 7.27376C171.02 7.58334 171.089 7.91442 171.089 8.267V19.4636Z" fill="#232323"/>
</svg>
